#tb 0: 100/2397
#media_type 0: video
#codec_id 0: rawvideo
#dimensions 0: 320x240
#sar 0: 0/1
0,          0,          0,        1,   230400, 0x07c93bd9
0,          1,          1,        1,   230400, 0xdcacc274
0,          2,          2,        1,   230400, 0x6115dc34
0,          3,          3,        1,   230400, 0x7317f35c
0,          4,          4,        1,   230400, 0xca18d9a6
0,          5,          5,        1,   230400, 0x0c104d49
0,          6,          6,        1,   230400, 0xc4c415cf
0,          7,          7,        1,   230400, 0xd1e4149f
0,          8,          8,        1,   230400, 0x5973ae25
0,          9,          9,        1,   230400, 0xd77893e6
0,         10,         10,        1,   230400, 0x7f9cac97
0,         11,         11,        1,   230400, 0xc8f81940
0,         12,         12,        1,   230400, 0xa2b6f5d4
0,         13,         13,        1,   230400, 0x620c3222
0,         14,         14,        1,   230400, 0x60d097a0
0,         15,         15,        1,   230400, 0x47201c65
